<?xml version="1.0" standalone="no"?><!DOCTYPE svg PUBLIC "-//W3C//DTD SVG 1.1//EN" "http://www.w3.org/Graphics/SVG/1.1/DTD/svg11.dtd"><svg t="1507530153828" class="icon" style="" viewBox="0 0 1024 1024" version="1.1" xmlns="http://www.w3.org/2000/svg" p-id="3824" xmlns:xlink="http://www.w3.org/1999/xlink" width="128" height="128"><defs><style type="text/css"></style></defs><path d="M1024 943.694769c0 4.017231 0 7.995077 0 12.012308-1.693538 5.632-3.190154 11.342769-5.159385 16.896-9.097846 25.284923-29.538462 36.588308-53.799385 42.535385-11.500308 2.835692-23.355077 4.411077-35.052308 6.577231-278.685538 0-557.331692 0-836.017231 0-11.697231-2.166154-23.552-3.780923-35.091692-6.577231-27.096615-6.577231-48.364308-20.204308-55.926154-49.152C2.087385 962.481231 0.984615 959.133538 0 955.707077c0-4.017231 0-7.995077 0-12.012308 25.875692 0 51.790769 0 79.005538 0 0-68.923077 0-136.310154 0-205.942154 39.581538 40.920615 88.733538 47.970462 139.500308 47.694769 50.884923-0.315077 99.918769-8.034462 135.837538-48.088615 13.981538 9.019077 27.057231 19.416615 41.708308 26.663385 37.691077 18.628923 78.651077 21.819077 119.808 21.504 37.809231-0.275692 75.460923-3.859692 110.08-20.519385 15.084308-7.246769 28.632615-17.683692 43.638154-27.214769 35.052308 39.424 84.046769 47.143385 134.813538 47.616s100.036923-6.183385 140.288-46.710154c0 69.159385 0 136.310154 0 204.957538C972.209231 943.694769 998.084923 943.694769 1024 943.694769zM135.758769 729.324308c43.874462 20.322462 89.796923 20.283077 135.916308 10.161231 31.940923-7.010462 57.737846-22.173538 64.315077-58.289231 1.654154-9.019077 10.594462-14.336 19.613538-13.666462 9.806769 0.748308 16.502154 6.144 18.077538 15.714462 2.244923 13.666462 8.979692 24.733538 19.652923 32.492308 9.806769 7.128615 20.676923 13.942154 32.137846 17.486769 54.784 16.974769 110.276923 16.974769 165.454769 2.441846 29.184-7.640615 53.366154-22.212923 60.455385-55.374769 1.929846-8.979692 9.924923-13.272615 19.219692-12.681846 9.728 0.630154 16.384 5.907692 17.998769 15.714462 4.332308 26.781538 21.425231 42.456615 45.528615 50.648615 48.836923 16.659692 98.225231 16.502154 146.865231-0.827077 24.694154-8.822154 43.953231-25.009231 53.169231-50.688 1.890462-5.356308 3.741538-12.169846 2.048-17.092923-8.231385-23.630769-23.473231-42.259692-44.071385-56.477538-22.252308-15.320615-47.300923-20.322462-73.846154-20.283077-101.966769 0.039385-203.894154 0-305.900308 0-102.596923 0-205.193846-0.078769-307.830154 0.039385-55.059692 0.078769-96.768 26.663385-115.948308 73.924923-1.575385 3.899077-1.851077 9.176615-0.630154 13.193846C95.704615 700.809846 112.403692 718.493538 135.758769 729.324308zM394.200615 412.396308c0 30.916923-0.039385 61.203692 0 91.451077 0.039385 29.499077 15.36 44.898462 45.056 45.016615 35.288615 0.118154 70.616615 0.118154 105.944615 0 29.853538-0.118154 44.937846-15.202462 44.977231-44.859077 0.078769-39.975385 0.354462-79.950769-0.078769-119.965538-0.236308-23.788308 5.710769-45.292308 19.534769-64.748308 4.214154-5.947077 8.349538-12.091077 11.736615-18.550154 5.947077-11.421538 3.111385-27.411692-5.750154-36.076308-8.546462-8.310154-18.747077-8.546462-32.177231-2.599385-13.351385 5.868308-27.096615 11.106462-40.96 15.596308-29.814154 9.452308-60.652308 11.618462-91.766154 11.854769-47.261538 0.433231-86.803692 38.281846-89.442462 84.913231C359.857231 398.690462 369.191385 409.836308 394.200615 412.396308zM494.040615 230.793846c-3.190154-9.806769-6.025846-18.668308-8.861538-27.490462-8.467692-26.584615-5.986462-50.530462 13.193846-72.782769 9.452308-10.948923 15.123692-25.206154 21.897846-36.785231 4.332308 14.414769 9.846154 31.310769 14.611692 48.482462 4.489846 16.384 4.804923 33.122462-0.905846 49.191385-4.765538 13.351385-10.909538 26.112-17.447385 41.511385 11.539692-5.868308 22.252308-10.24 31.862154-16.384 34.304-22.094769 45.725538-53.169231 33.910154-92.356923-9.924923-33.004308-27.766154-61.873231-49.152-88.536615-9.176615-11.500308-19.771077-21.897846-30.286769-33.398154-3.859692 11.264-5.671385 20.598154-10.082462 28.475077-11.264 19.968-23.552 39.384615-35.682462 58.840615-15.990154 25.678769-25.127385 52.657231-18.904615 83.456C444.100923 202.515692 466.156308 226.146462 494.040615 230.793846z" p-id="3825"></path></svg>