<?xml version="1.0" encoding="utf-8"?>
<!-- Generator: Adobe Illustrator 21.0.0, SVG Export Plug-In . SVG Version: 6.00 Build 0)  -->
<svg version="1.1" id="图层_1" xmlns="http://www.w3.org/2000/svg" xmlns:xlink="http://www.w3.org/1999/xlink" x="0px" y="0px"
	 viewBox="0 0 128 128" style="enable-background:new 0 0 128 128;" xml:space="preserve">
<g>
	<path d="M56.5,117.6c0,2.6-0.8,4.7-2.5,6.3s-3.8,2.4-6.4,2.4H13.1c-2.6,0-4.7-0.8-6.3-2.4c-1.6-1.6-2.4-3.7-2.4-6.3v-106
		c0-2.6,0.8-4.7,2.4-6.3c1.6-1.6,3.7-2.4,6.3-2.4h34.6c2.6,0,4.7,0.8,6.4,2.4c1.7,1.6,2.5,3.7,2.5,6.3V117.6z M45.5,116.7V12.5H15.3
		v104.1H45.5z"/>
	<path d="M126.1,126.4h-10.9l-4.3-27.5H86.3l-4.3,27.5H71.4v-0.3l22-123.6h10.8L126.1,126.4z M109.4,89.2l-10.8-67l-10.9,67H109.4z"
		/>
</g>
</svg>
